<?xml version="1.0" encoding="utf-8"?>
<!-- Generator: Adobe Illustrator 16.0.0, SVG Export Plug-In . SVG Version: 6.00 Build 0)  -->
<!DOCTYPE svg PUBLIC "-//W3C//DTD SVG 1.1//EN" "http://www.w3.org/Graphics/SVG/1.1/DTD/svg11.dtd">
<svg version="1.1" id="Layer_1" xmlns="http://www.w3.org/2000/svg" xmlns:xlink="http://www.w3.org/1999/xlink" x="0px" y="0px"
	 width="1280px" height="800px" viewBox="0 0 1280 800" enable-background="new 0 0 1280 800" xml:space="preserve">
<defs>
	<style type="text/css">
		@font-face {
			font-family: Verdana;
			src: url('verdana_normal.woff');
			font-weight: normal;
		}
		@font-face {
			font-family: Verdana;
			src: url('verdana_bold.woff');
			font-weight: bold;
		}
	</style>
</defs>
<image overflow="visible" width="4032" height="3024" xlink:href="../aleksandarbos.github.io/images/ecuador/montanita/house.jpg"  transform="matrix(0.3175 0 0 0.3175 0 0)">
</image>
<rect x="-305.5" y="119.5" transform="matrix(0.6958 -0.7183 0.7183 0.6958 -339.829 214.6684)" opacity="0.2" fill="#F7B31A" width="778" height="778"/>
<rect x="-345.5" y="119.5" transform="matrix(0.6958 -0.7183 0.7183 0.6958 -351.9976 185.9382)" opacity="0.5" fill="#F7B31A" width="778" height="778"/>
<text transform="matrix(1 0 0 1 20.5327 508.5)" fill="#FFFFFF" font-weight="bold" font-family="'Verdana'" font-size="89">EKVADOR</text>
<g>
	<path fill-rule="evenodd" clip-rule="evenodd" fill="#FEFEFD" d="M128.653,266.972c1.188,3.925,0.441,7.645-1.274,11.224
		c-1.287,2.685-3.48,4.61-5.796,6.372c-0.54,0.411-0.591,0.818-0.619,1.38c-0.179,3.664-1.26,6.976-3.559,9.917
		c-2.903,3.713-6.705,5.704-11.297,6.254c-0.98,0.119-1.306,0.401-1.43,1.402c-1.25,10.131-11.193,16.624-21.031,13.717
		c-1.244-0.368-1.708-0.289-2.427,0.981c-3.043,5.38-7.73,8.453-13.938,9.04c-0.869,0.083-1.125,0.299-0.987,1.23
		c1.075,7.28-1.495,13.154-7.319,17.471c-3.772,2.796-8.182,3.804-12.868,3.021c-1.195-0.199-1.58-0.033-1.579,1.235
		c0.005,5.323-2.083,9.792-6.047,13.257c-3.66,3.2-8.047,4.646-12.931,4.287c-1.086-0.079-1.406,0.025-1.284,1.236
		c0.713,7.072-2.062,12.651-7.697,16.771c-3.182,2.327-6.927,3.29-10.854,2.998c-1.5-0.11-2.106,0.36-2.366,1.67
		c-23.556-24.061-47.111-48.123-70.666-72.185c1.285-1.311,3.051-1.369,4.673-1.598c1.103-0.155,1.181-0.569,1.025-1.43
		c-1.374-7.617,1.388-13.598,7.417-18.137c2.404-1.81,5.263-2.79,8.292-2.998c1.198-0.082,1.605-0.416,1.494-1.669
		c-0.469-5.37,1.341-10.043,5.009-13.845c3.294-3.415,7.511-5.214,12.301-5.3c1.273-0.021,1.359-0.374,1.104-1.402
		c-1.136-4.57-0.559-8.969,1.691-13.07c3.438-6.268,10.622-9.849,17.743-8.916c0.724,0.095,1.451,0.176,2.425,0.294
		c-0.859-2.038-1.782-3.836-2.156-5.832c-1.237-6.607,1.637-13.708,7.855-17.296c2.766-1.597,5.678-2.342,8.813-2.3
		c1.034,0.014,1.25-0.136,1.027-1.246c-1.434-7.15,0.849-13.024,6.669-17.296c3.988-2.928,8.616-3.57,13.445-2.37
		c0.845,0.21,1.317,0.364,1.851-0.779c3.147-6.718,8.625-9.835,15.967-9.824c0.185,0,0.368,0.11,0.551,0.169
		c1.033,0.417,2.171,0.016,3.21,0.439c2.839,1.156,5.535,2.463,7.556,4.937c1.357,1.663,1.39,1.451,3,0.15
		c2.675-2.162,5.426-4.291,9.23-3.772c0.618,0.083,1.198-0.049,1.625-0.565c5.967-0.113,10.672,2.229,14.045,7.194
		c0.986,1.449,1.819,2.966,2.204,4.683c0.222,0.998,0.67,1.366,1.763,1.231c5.921-0.729,10.882,1.172,14.771,5.702
		c2.586,3.012,3.853,6.562,3.806,10.53c-0.01,0.857,0.193,1.418,0.904,1.844c3.258,1.943,5.07,4.986,6.274,8.438
		c0.249,0.71,0.59,0.994,1.254,1.242c1.376,0.516,2.843,0.92,3.876,2.092c1.598,1.651,3.379,3.164,4.745,4.989
		c1.671,2.234,2.399,4.91,2.456,7.733c0.076,3.919-1.018,7.48-3.254,10.693c-0.316,0.454-0.794,0.91-0.333,1.458
		C128.121,263.748,128.292,265.388,128.653,266.972z M57.639,243.939c0.253,0.306,0.628,0.271,0.965,0.339
		c5.947,1.189,10.537,4.398,13.982,9.342c1.327,1.904,2.048,4.095,3.02,6.169c-0.239,0.438-0.462,0.885-0.717,1.313
		c-2.643,4.428-4.183,9.187-4.255,14.369c-0.051,3.534,0.496,7.036,2.825,9.757c4.286,5.011,9.17,9.399,15.254,12.186
		c4.658,2.133,9.151,1.763,13.336-1.306c2.678-1.964,5.035-4.27,7.229-6.76c4.405-5.001,5.137-9.67,2.021-15.598
		c-3.739-7.11-8.982-13.032-15.451-17.753c-6.167-4.499-11.902-4.238-17.097,0.366c-0.523-0.321-0.573-0.907-0.773-1.406
		c-2.848-7.024-7.888-11.579-15.238-13.539c-0.423-0.113-0.906-0.08-1.231-0.46c5.673-5.555,6.326-10.891,2.182-17.636
		c-1.745-2.84-3.953-5.291-6.354-7.569c-3.963-3.758-7.996-7.437-13.11-9.634c-4.419-1.899-8.595-1.49-12.483,1.369
		c-2.631,1.935-5.02,4.161-7.104,6.667c-4.965,5.974-5.366,10.861-1.538,17.637c2.357,4.173,5.497,7.734,8.774,11.199
		c2.267,2.397,5.02,3.766,8.219,4.296c4.726,0.782,9.269-0.012,13.682-1.732C55.075,245.049,56.351,244.48,57.639,243.939z
		 M63.44,278.173c0.394-0.385,0.815-0.747,1.178-1.16c3.281-3.736,4.947-7.973,3.847-12.99c-0.812-3.703-2.883-6.587-5.774-9.031
		c-5.73-4.84-13.049-4.884-18.924,0.042c-5.476,4.592-8.762,10.554-9.377,17.709c-0.646,7.496,3.326,12.797,11.116,12.94
		C52.514,285.813,58.392,282.896,63.44,278.173z M28.137,251.563c-0.852-0.954-1.889-1.65-3.026-2.188
		c-1.975-0.937-3.505-0.114-3.52,2.054c-0.022,3.464,1.312,6.474,3.816,8.831c1.153,1.087,2.717,1.559,4.314,0.738
		c1.307-0.673,1.839-2.129,1.515-4.056C30.87,254.772,29.502,253.163,28.137,251.563z M67.11,291.395
		c-1.668-1.619-3.48-3.004-5.871-3.366c-1.258-0.19-2.439,0.065-3.237,1.101c-0.848,1.101-0.999,2.32-0.343,3.655
		c1.429,2.914,6.921,5.703,10.059,5.037c1.498-0.319,2.156-1.43,1.642-2.927C68.903,293.555,68.191,292.353,67.11,291.395z"/>
	<path fill-rule="evenodd" clip-rule="evenodd" fill="#F1F1F0" d="M74.5,194.592c-0.427,0.517-1.006,0.648-1.625,0.565
		c-3.804-0.519-6.555,1.61-9.23,3.772c-1.609,1.3-1.642,1.512-3-0.15c-2.021-2.473-4.717-3.78-7.556-4.937
		c-1.039-0.423-2.178-0.022-3.21-0.439c0.85-0.371,0.772-1.268,0.951-1.924c2.252-8.333,5.635-16.198,9.975-23.625
		c4.138-7.084,9.226-13.462,15.956-18.267c8.873-6.337,18.779-8.622,29.596-6.891c4.565,0.73,8.995,1.873,13.206,3.799
		c1.959,0.896,2.83,2.997,2.229,5.108c-0.986,3.467-3.227,6.169-5.568,8.715c-5.091,5.535-10.809,10.402-16.725,15.042
		c-3.813,2.994-7.525,6.122-11.263,9.208c-2.555,2.113-5.572,3.464-8.369,5.177c-2.264,1.386-4.685,2.55-6.689,4.321
		C73.577,194.731,74.152,194.281,74.5,194.592z"/>
	<path fill-rule="evenodd" clip-rule="evenodd" fill="#F1F1F0" d="M128.653,266.972c-0.361-1.583-0.532-3.224-1.644-4.55
		c-0.461-0.549,0.018-1.004,0.333-1.458c2.236-3.212,3.33-6.773,3.254-10.693c-0.057-2.823-0.785-5.499-2.456-7.733
		c-1.366-1.825-3.146-3.338-4.745-4.989c1.605,0.635,2.707,1.895,3.707,3.194c0.746,0.972,1.116,0.671,1.595-0.141
		c1.787-3.034,3.541-6.09,5.399-9.079c0.787-1.268,1.697-2.499,2.736-3.567c4.191-4.307,7.868-9.06,11.777-13.606
		c4.033-4.688,8.417-8.991,12.942-13.161c1.927-1.774,4.154-3.208,6.647-4.212c2.845-1.146,5.515-0.444,6.774,2.939
		c2.773,7.447,4.116,15.062,3.167,23.008c-0.65,5.445-2.495,10.445-5.294,15.163c-3.12,5.258-7.395,9.455-12.066,13.218
		c-4.38,3.528-9.283,6.299-14.392,8.703c-5.391,2.537-10.941,4.611-16.673,6.211C129.238,266.351,128.923,266.6,128.653,266.972z"/>
	<path fill-rule="evenodd" clip-rule="evenodd" fill="#333333" d="M78.75,256.363c5.195-4.604,10.931-4.865,17.097-0.366
		c6.469,4.722,11.712,10.643,15.451,17.753c3.116,5.928,2.384,10.597-2.021,15.598c-2.194,2.49-4.55,4.796-7.229,6.76
		c-4.185,3.069-8.678,3.439-13.336,1.306c-6.084-2.786-10.969-7.175-15.254-12.186c-2.33-2.721-2.876-6.223-2.825-9.757
		c0.072-5.182,1.612-9.941,4.255-14.369c0.255-0.428,0.479-0.875,0.717-1.313C76.654,258.647,77.702,257.506,78.75,256.363z"/>
	<path fill-rule="evenodd" clip-rule="evenodd" fill="#333333" d="M57.639,243.939c-1.288,0.541-2.563,1.11-3.863,1.616
		c-4.413,1.72-8.957,2.515-13.682,1.732c-3.199-0.531-5.952-1.899-8.219-4.296c-3.277-3.465-6.417-7.025-8.774-11.199
		c-3.828-6.776-3.427-11.663,1.538-17.637c2.084-2.506,4.473-4.732,7.104-6.667c3.888-2.859,8.063-3.268,12.483-1.369
		c5.115,2.197,9.147,5.875,13.11,9.634c2.401,2.278,4.609,4.729,6.354,7.569c4.144,6.745,3.491,12.082-2.182,17.636
		C60.219,241.951,58.929,242.947,57.639,243.939z"/>
	<path fill-rule="evenodd" clip-rule="evenodd" fill="#CACACA" d="M63.44,278.173c-5.048,4.723-10.927,7.64-17.935,7.511
		c-7.79-0.143-11.762-5.444-11.116-12.94c0.615-7.155,3.901-13.118,9.377-17.709c5.875-4.926,13.194-4.882,18.924-0.042
		c2.891,2.443,4.963,5.328,5.774,9.031c1.1,5.017-0.565,9.253-3.847,12.99C64.255,277.426,63.834,277.788,63.44,278.173z
		 M59.016,261.298c0.057-0.424,0.09-0.672,0.124-0.919c0.311-2.235-0.338-4.078-2.299-5.304c-1.785-1.116-3.643-1.073-5.384,0.063
		c-1.932,1.262-2.514,3.159-2.168,5.374c0.31,1.993,0.878,3.909,1.893,5.663c0.35,0.606,0.322,1.006-0.188,1.549
		c-2.16,2.306-4.352,4.574-6.809,6.566c-2.475,2.007-4.972,1.063-5.57-2.102c-0.275-1.456-0.068-2.893,0.218-4.324
		c0.1-0.5,0.231-1.047-0.445-1.234c-0.753-0.208-0.948,0.329-1.079,0.908c-0.4,1.777-0.574,3.561-0.141,5.357
		c0.629,2.607,2.324,4.039,5.002,4.118c0.606,0.019,0.653,0.082,0.644,0.688c-0.036,2.431,1.287,4.194,3.606,4.943
		c1.763,0.569,3.56,0.494,5.352,0.162c0.596-0.109,1.489-0.047,1.354-1.01c-0.141-1-0.957-0.63-1.562-0.538
		c-1.799,0.274-3.594,0.458-5.301-0.388c-1.956-0.97-2.418-2.87-1.118-4.582c2.073-2.729,4.674-4.943,7.143-7.288
		c0.575-0.546,1.015-0.365,1.573-0.034c2.009,1.188,4.186,1.934,6.508,2.146c2.144,0.196,3.837-0.669,4.887-2.556
		c1.02-1.83,0.883-3.682-0.337-5.377C63.478,261.181,61.407,260.876,59.016,261.298z"/>
	<path fill-rule="evenodd" clip-rule="evenodd" fill="#999999" d="M57.639,243.939c1.29-0.992,2.581-1.988,3.87-2.981
		c0.325,0.381,0.808,0.348,1.231,0.46c7.35,1.96,12.39,6.514,15.238,13.539c0.2,0.499,0.25,1.085,0.773,1.406
		c-1.048,1.143-2.096,2.284-3.145,3.427c-0.971-2.074-1.692-4.265-3.02-6.169c-3.445-4.943-8.035-8.153-13.982-9.342
		C58.267,244.211,57.892,244.245,57.639,243.939z"/>
	<path fill-rule="evenodd" clip-rule="evenodd" fill="#EBAEC8" d="M28.137,251.563c1.365,1.599,2.732,3.208,3.099,5.379
		c0.324,1.926-0.208,3.382-1.515,4.056c-1.597,0.82-3.161,0.349-4.314-0.738c-2.504-2.357-3.838-5.367-3.816-8.831
		c0.015-2.167,1.545-2.99,3.52-2.054C26.248,249.914,27.286,250.61,28.137,251.563z"/>
	<path fill-rule="evenodd" clip-rule="evenodd" fill="#EBAEC8" d="M67.11,291.395c1.081,0.958,1.793,2.161,2.25,3.501
		c0.514,1.497-0.145,2.607-1.642,2.927c-3.138,0.666-8.63-2.124-10.059-5.037c-0.656-1.335-0.504-2.555,0.343-3.655
		c0.798-1.036,1.979-1.291,3.237-1.101C63.63,288.39,65.442,289.776,67.11,291.395z"/>
	<path fill-rule="evenodd" clip-rule="evenodd" fill="#1D1D1D" d="M59.016,261.298c2.391-0.421,4.462-0.117,5.902,1.882
		c1.221,1.695,1.357,3.547,0.337,5.377c-1.05,1.887-2.743,2.752-4.887,2.556c-2.322-0.213-4.499-0.958-6.508-2.146
		c-0.558-0.332-0.998-0.513-1.573,0.034c-2.469,2.345-5.07,4.558-7.143,7.288c-1.3,1.712-0.838,3.612,1.118,4.582
		c1.707,0.846,3.502,0.662,5.301,0.388c0.605-0.092,1.421-0.463,1.562,0.538c0.134,0.963-0.759,0.9-1.354,1.01
		c-1.792,0.332-3.589,0.407-5.352-0.162c-2.319-0.749-3.642-2.512-3.606-4.943c0.009-0.606-0.038-0.669-0.644-0.688
		c-2.679-0.079-4.373-1.51-5.002-4.118c-0.433-1.796-0.26-3.58,0.141-5.357c0.131-0.58,0.326-1.116,1.079-0.908
		c0.676,0.188,0.545,0.735,0.445,1.234c-0.286,1.431-0.493,2.868-0.218,4.324c0.598,3.165,3.095,4.109,5.57,2.102
		c2.458-1.992,4.649-4.26,6.809-6.566c0.51-0.543,0.538-0.943,0.188-1.549c-1.015-1.754-1.583-3.67-1.893-5.663
		c-0.346-2.214,0.237-4.111,2.168-5.374c1.742-1.137,3.599-1.18,5.384-0.063c1.961,1.226,2.609,3.069,2.299,5.304
		C59.106,260.626,59.073,260.874,59.016,261.298z"/>
</g>
<a href="http://www.globallama.com"><text transform="matrix(0.7131 0.701 -0.701 0.7131 70.6294 64.6758)" fill="#FFFFFF" font-weight="normal" font-family="'Verdana'" font-size="32">globallama.com</text></a>
<text transform="matrix(1 0 0 1 34.3213 561)"><tspan x="0" y="0" fill="#FFFFFF" font-weight="normal" font-family="'Verdana'" font-size="30">U zemlji gde istovremeno </tspan><tspan x="0" y="36" fill="#FFFFFF" font-weight="normal" font-family="'Verdana'" font-size="30">žive četiri godišnja doba...</tspan></text>
</svg>
